<mxfile host="app.diagrams.net" agent="Mozilla/5.0 (Windows NT 10.0; Win64; x64) AppleWebKit/537.36 (KHTML, like Gecko) Chrome/140.0.0.0 Safari/537.36" version="28.2.2">
  <diagram name="ページ1" id="6Y45mzCOmeNJ9TMm0-jh">
    <mxGraphModel dx="786" dy="451" grid="1" gridSize="10" guides="1" tooltips="1" connect="1" arrows="1" fold="1" page="1" pageScale="1" pageWidth="827" pageHeight="1169" math="0" shadow="0">
      <root>
        <mxCell id="0" />
        <mxCell id="1" parent="0" />
        <mxCell id="Z8U3Wp8wfJgzfSsmLgkW-1" value="ユーザー" style="shape=umlActor;verticalLabelPosition=bottom;verticalAlign=top;html=1;outlineConnect=0;" vertex="1" parent="1">
          <mxGeometry x="190" y="180" width="30" height="60" as="geometry" />
        </mxCell>
        <mxCell id="Z8U3Wp8wfJgzfSsmLgkW-3" value="" style="endArrow=classic;html=1;rounded=0;" edge="1" parent="1" source="Z8U3Wp8wfJgzfSsmLgkW-1" target="Z8U3Wp8wfJgzfSsmLgkW-32">
          <mxGeometry width="50" height="50" relative="1" as="geometry">
            <mxPoint x="280" y="230" as="sourcePoint" />
            <mxPoint x="330" y="180" as="targetPoint" />
          </mxGeometry>
        </mxCell>
        <mxCell id="Z8U3Wp8wfJgzfSsmLgkW-30" value="" style="endArrow=classic;html=1;rounded=0;" edge="1" parent="1" source="Z8U3Wp8wfJgzfSsmLgkW-34" target="Z8U3Wp8wfJgzfSsmLgkW-33">
          <mxGeometry width="50" height="50" relative="1" as="geometry">
            <mxPoint x="420" y="260" as="sourcePoint" />
            <mxPoint x="470" y="210" as="targetPoint" />
          </mxGeometry>
        </mxCell>
        <mxCell id="Z8U3Wp8wfJgzfSsmLgkW-31" value="" style="endArrow=classic;html=1;rounded=0;" edge="1" parent="1" source="Z8U3Wp8wfJgzfSsmLgkW-32" target="Z8U3Wp8wfJgzfSsmLgkW-34">
          <mxGeometry width="50" height="50" relative="1" as="geometry">
            <mxPoint x="400" y="280" as="sourcePoint" />
            <mxPoint x="500" y="270" as="targetPoint" />
          </mxGeometry>
        </mxCell>
        <mxCell id="Z8U3Wp8wfJgzfSsmLgkW-32" value="訪問者システムメニュー" style="shape=umlBoundary;whiteSpace=wrap;html=1;" vertex="1" parent="1">
          <mxGeometry x="300" y="110" width="100" height="80" as="geometry" />
        </mxCell>
        <mxCell id="Z8U3Wp8wfJgzfSsmLgkW-33" value="訪問者一覧画面" style="shape=umlBoundary;whiteSpace=wrap;html=1;" vertex="1" parent="1">
          <mxGeometry x="300" y="250" width="100" height="80" as="geometry" />
        </mxCell>
        <mxCell id="Z8U3Wp8wfJgzfSsmLgkW-34" value="訪問者一覧表示" style="ellipse;shape=umlControl;whiteSpace=wrap;html=1;" vertex="1" parent="1">
          <mxGeometry x="500" y="180" width="70" height="80" as="geometry" />
        </mxCell>
        <mxCell id="Z8U3Wp8wfJgzfSsmLgkW-35" value="訪問者" style="ellipse;shape=umlEntity;whiteSpace=wrap;html=1;" vertex="1" parent="1">
          <mxGeometry x="630" y="180" width="80" height="80" as="geometry" />
        </mxCell>
        <mxCell id="Z8U3Wp8wfJgzfSsmLgkW-36" value="" style="endArrow=classic;startArrow=classic;html=1;rounded=0;" edge="1" parent="1" source="Z8U3Wp8wfJgzfSsmLgkW-34" target="Z8U3Wp8wfJgzfSsmLgkW-35">
          <mxGeometry width="50" height="50" relative="1" as="geometry">
            <mxPoint x="380" y="260" as="sourcePoint" />
            <mxPoint x="430" y="210" as="targetPoint" />
          </mxGeometry>
        </mxCell>
      </root>
    </mxGraphModel>
  </diagram>
</mxfile>
